<svg width="395" height="130" viewBox="0 0 395 130" fill="none" xmlns="http://www.w3.org/2000/svg">
<path fill-rule="evenodd" clip-rule="evenodd" d="M64.966 66C64.9886 65.5028 65 65.0027 65 64.5C65 46.5507 50.4493 32 32.5 32C14.5507 32 0 46.5507 0 64.5C0 82.4493 14.5507 97 32.5 97C37.7107 97 42.635 95.7737 47 93.5941V97H65V66H64.966Z" fill="#5A6BD8"/>
<path fill-rule="evenodd" clip-rule="evenodd" d="M115 95.8772C112.291 96.6094 109.441 97 106.5 97C88.5507 97 74 82.4493 74 64.5C74 46.5507 88.5507 32 106.5 32C124.449 32 139 46.5507 139 64.5C139 64.667 138.999 64.8336 138.996 65H139V99H138.996C138.773 113.788 128.673 126.182 115 129.877V99V95.8772ZM114.996 95.8772C101.323 92.1822 91.223 79.7883 91 65H114.996V95.8772Z" fill="#5A6BD8"/>
<path fill-rule="evenodd" clip-rule="evenodd" d="M345 60V30.0932C332.727 34.7375 324 46.5997 324 60.5C324 78.4492 338.551 93 356.5 93C361.711 93 366.635 91.7737 371 89.594V129.583C384.554 123.759 394.597 104.342 394.988 81.0987L394.996 81.0987C394.995 80.9962 394.994 80.8938 394.993 80.7914C394.994 80.6891 394.995 80.5867 394.996 80.4843H394.988C394.735 65.4716 390.456 52.0555 383.805 42.867C380.256 37.3817 375.098 33.0339 369 30.4908V60C369 66.6274 363.627 72 357 72C350.373 72 345 66.6274 345 60Z" fill="#5A6BD8"/>
<path fill-rule="evenodd" clip-rule="evenodd" d="M148 55.3439C158.16 51.7095 166.055 42.947 168.877 32H148V55.3439ZM170 63.4516H148V97H170V63.4516Z" fill="#5A6BD8"/>
<path fill-rule="evenodd" clip-rule="evenodd" d="M201 0H179V97H201V64.3439H183C185.549 54.4538 192.24 46.3468 201 42.1935V0Z" fill="#5A6BD8"/>
<path fill-rule="evenodd" clip-rule="evenodd" d="M306 0H284V97H306V64.3439H288C290.549 54.4538 297.24 46.3468 306 42.1935V0Z" fill="#5A6BD8"/>
<path fill-rule="evenodd" clip-rule="evenodd" d="M274.996 65C274.999 64.8336 275 64.667 275 64.5C275 46.5507 260.449 32 242.5 32C224.551 32 210 46.5507 210 64.5C210 82.4493 224.551 97 242.5 97C248.317 97 253.777 95.4719 258.5 92.7952C248.784 87.2891 242.184 76.9227 242.004 65H274.996Z" fill="#5A6BD8"/>
</svg>
