<svg width="860" height="800" viewBox="0 0 860 800" fill="none" xmlns="http://www.w3.org/2000/svg">
<path d="M490.621 339.943C505.226 339.943 517.066 328.103 517.066 313.497C517.066 298.892 505.226 287.051 490.621 287.051C476.015 287.051 464.175 298.892 464.175 313.497C464.175 328.103 476.015 339.943 490.621 339.943Z" fill="#2F2E41"/>
<path d="M497.989 287.779C502.565 287.78 507.064 288.968 511.044 291.228C515.024 293.487 518.349 296.741 520.695 300.671C523.041 304.601 524.327 309.072 524.428 313.648C524.529 318.223 523.44 322.747 521.269 326.776C523.562 323.907 525.232 320.592 526.173 317.043C527.113 313.493 527.305 309.786 526.734 306.158C526.163 302.531 524.842 299.062 522.857 295.973C520.871 292.883 518.264 290.242 515.201 288.216C512.138 286.19 508.686 284.825 505.066 284.207C501.446 283.588 497.737 283.731 494.176 284.626C490.614 285.52 487.278 287.147 484.379 289.402C481.481 291.657 479.084 294.491 477.342 297.724C479.814 294.62 482.954 292.114 486.529 290.393C490.104 288.671 494.021 287.778 497.989 287.779V287.779Z" fill="#2F2E41"/>
<path d="M441.203 313.441C484.107 313.441 518.887 278.661 518.887 235.757C518.887 192.853 484.107 158.073 441.203 158.073C398.3 158.073 363.52 192.853 363.52 235.757C363.52 278.661 398.3 313.441 441.203 313.441Z" fill="#2F2E41"/>
<path d="M380.234 187.558C393.62 172.504 412.331 163.24 432.418 161.72C452.504 160.2 472.396 166.544 487.894 179.413C487.259 178.809 486.631 178.2 485.97 177.613C470.571 163.93 450.368 156.924 429.804 158.134C409.239 159.345 389.998 168.675 376.311 184.071C362.625 199.466 355.613 219.668 356.82 240.233C358.026 260.797 367.351 280.041 382.743 293.731C383.404 294.318 384.082 294.871 384.756 295.431C370.16 281.547 361.53 262.535 360.687 242.409C359.843 222.282 366.852 202.615 380.234 187.558V187.558Z" fill="#2F2E41"/>
<path d="M440.545 312.783C468.178 312.783 490.579 290.382 490.579 262.749C490.579 235.116 468.178 212.715 440.545 212.715C412.912 212.715 390.511 235.116 390.511 262.749C390.511 290.382 412.912 312.783 440.545 312.783Z" fill="#FFB8B8"/>
<path d="M404.995 278.549C404.995 278.549 411.578 339.116 401.045 345.7C390.511 352.283 461.612 361.5 461.612 361.5C461.612 361.5 451.079 295.666 477.412 278.549H404.995Z" fill="#FFB8B8"/>
<path d="M468.195 335.166C468.195 335.166 487.801 326.011 459.565 329.272C431.328 332.533 406.967 320.024 406.967 320.024C406.967 320.024 398.411 311.466 397.095 320.683C395.778 329.899 401.045 347.016 372.078 349.65C343.111 352.283 316.777 344.383 306.244 364.133C295.711 383.883 300.977 469.467 300.977 469.467C300.977 469.467 320.728 540.568 336.528 551.101C352.328 561.635 490.579 547.151 490.579 547.151L530.079 476.051V393.1C530.079 393.1 524.812 364.133 487.945 372.033C487.945 372.033 464.245 366.766 465.562 354.916C466.879 343.066 468.195 335.166 468.195 335.166Z" fill="#D0CDE1"/>
<path d="M341.753 601.418C342.567 597.872 343.112 595.866 343.112 595.866L342.69 592.982L338.352 563.525L336.529 551.1C352.325 544.517 356.278 514.232 356.278 514.232L356.874 513.875L359.57 512.262V512.255L369.248 506.449L369.444 506.333L373.353 508.934L381.295 514.232C409.081 534.664 437.375 534.301 454.836 531.082C465.51 529.113 472.144 526.083 472.144 526.083L491.297 519.696L491.893 519.499L492.481 519.587L503.715 521.287L503.918 521.323L504.848 521.461L502.247 539.445L498.476 565.581C508.438 570.856 517.295 580.767 525.041 592.982C526.756 595.685 528.417 598.497 530.025 601.418C532.118 605.196 534.116 609.127 536.02 613.153C536.253 613.632 536.478 614.119 536.703 614.606C537.437 616.182 538.164 617.774 538.868 619.372H338.265C338.527 617.767 338.788 616.233 339.043 614.758C339.056 614.708 339.066 614.657 339.072 614.606C339.166 614.112 339.253 613.632 339.333 613.153C340.22 608.357 341.077 604.353 341.753 601.418Z" fill="#2F2E41"/>
<path d="M333.894 348.333C333.894 348.333 348.378 374.666 343.111 407.583C337.844 440.5 358.911 522.134 358.911 522.134L374.711 518.184C374.711 518.184 364.178 449.717 366.811 433.917C369.445 418.117 369.445 356.233 356.278 348.333C343.111 340.433 333.894 348.333 333.894 348.333Z" fill="#2F2E41"/>
<path d="M487.019 375.699L492.554 521.476L503.087 528.059C503.087 528.059 518.229 368.083 510.329 368.083H494.254C493.272 368.083 492.3 368.283 491.397 368.671C490.494 369.058 489.679 369.626 489.002 370.338C488.325 371.05 487.801 371.893 487.46 372.815C487.119 373.736 486.969 374.717 487.019 375.699V375.699Z" fill="#2F2E41"/>
<path d="M366.153 518.843C369.789 518.843 372.736 515.895 372.736 512.259C372.736 508.623 369.789 505.676 366.153 505.676C362.517 505.676 359.569 508.623 359.569 512.259C359.569 515.895 362.517 518.843 366.153 518.843Z" fill="#6C63FF"/>
<path d="M497.821 525.426C501.456 525.426 504.404 522.479 504.404 518.843C504.404 515.207 501.456 512.259 497.821 512.259C494.185 512.259 491.237 515.207 491.237 518.843C491.237 522.479 494.185 525.426 497.821 525.426Z" fill="#6C63FF"/>
<path d="M397.753 200.207V250.24H409.34L424.087 234.44L422.112 250.24H473.33L470.17 234.44L476.49 250.24H484.654V200.207H397.753Z" fill="#2F2E41"/>
<path d="M389.853 259.457C392.035 259.457 393.803 256.215 393.803 252.216C393.803 248.216 392.035 244.974 389.853 244.974C387.671 244.974 385.903 248.216 385.903 252.216C385.903 256.215 387.671 259.457 389.853 259.457Z" fill="#FFB8B8"/>
<path d="M491.237 259.457C493.419 259.457 495.187 256.215 495.187 252.216C495.187 248.216 493.419 244.974 491.237 244.974C489.056 244.974 487.287 248.216 487.287 252.216C487.287 256.215 489.056 259.457 491.237 259.457Z" fill="#FFB8B8"/>
<path d="M518.229 518.184C518.229 518.184 458.32 506.992 454.37 526.743C450.42 546.493 520.862 537.934 520.862 537.934L518.229 518.184Z" fill="#FFB8B8"/>
<path d="M516.912 382.567C516.912 382.567 660.43 497.117 634.097 524.768C607.763 552.418 507.696 544.518 507.696 544.518L514.279 511.601L572.213 505.017L543.246 476.051L516.912 478.684V382.567Z" fill="#D0CDE1"/>
<path d="M304.927 573.485L323.361 587.968C323.361 587.968 336.528 628.785 356.278 616.935C376.028 605.085 337.844 562.951 337.844 562.951L315.461 555.051L304.927 573.485Z" fill="#FFB8B8"/>
<path d="M323.361 361.5L304.977 367.032C304.977 367.032 177.21 461.567 171.943 487.901C166.676 514.234 196.96 528.718 196.96 528.718L311.511 582.701L323.361 551.101L269.377 523.451C269.377 523.451 273.327 515.551 257.527 514.234C241.727 512.918 239.094 495.801 239.094 495.801C239.094 495.801 270.694 447.084 287.811 457.617C304.927 468.151 310.194 476.051 310.194 476.051L323.361 361.5Z" fill="#D0CDE1"/>
<path d="M585.568 605.93V610.34C585.57 611.551 585.346 612.751 584.906 613.879C584.711 614.382 584.476 614.868 584.202 615.332C583.336 616.786 582.107 617.989 580.636 618.825C579.164 619.661 577.501 620.1 575.809 620.099H251.341C249.649 620.1 247.985 619.661 246.514 618.825C245.043 617.989 243.814 616.786 242.948 615.332C242.674 614.868 242.439 614.382 242.243 613.879C241.804 612.751 241.58 611.551 241.582 610.34V605.93C241.582 604.648 241.834 603.379 242.324 602.195C242.815 601.011 243.533 599.935 244.44 599.029C245.346 598.123 246.422 597.404 247.606 596.914C248.79 596.423 250.059 596.171 251.341 596.172H270.044V594.115C270.043 594.062 270.054 594.009 270.074 593.959C270.095 593.91 270.125 593.865 270.163 593.827C270.2 593.789 270.245 593.76 270.295 593.739C270.344 593.719 270.397 593.708 270.45 593.708H280.209C280.262 593.708 280.315 593.719 280.365 593.739C280.414 593.76 280.459 593.789 280.497 593.827C280.535 593.865 280.565 593.91 280.585 593.959C280.605 594.009 280.616 594.062 280.616 594.115V596.172H286.712V594.115C286.712 594.062 286.722 594.009 286.743 593.959C286.763 593.91 286.793 593.865 286.831 593.827C286.869 593.789 286.914 593.76 286.963 593.739C287.013 593.719 287.066 593.708 287.119 593.708H296.877C296.931 593.708 296.984 593.719 297.033 593.739C297.083 593.76 297.127 593.789 297.165 593.827C297.203 593.865 297.233 593.91 297.253 593.959C297.274 594.009 297.284 594.062 297.284 594.115V596.172H303.388V594.115C303.388 594.062 303.398 594.009 303.419 593.959C303.439 593.91 303.469 593.865 303.507 593.827C303.545 593.789 303.589 593.76 303.639 593.739C303.688 593.719 303.741 593.708 303.795 593.708H313.553C313.607 593.708 313.66 593.719 313.709 593.739C313.758 593.76 313.803 593.789 313.841 593.827C313.879 593.865 313.909 593.91 313.929 593.959C313.95 594.009 313.96 594.062 313.96 594.115V596.172H320.056V594.115C320.056 594.062 320.067 594.009 320.087 593.959C320.108 593.91 320.137 593.865 320.175 593.827C320.213 593.789 320.258 593.76 320.307 593.739C320.357 593.719 320.41 593.708 320.463 593.708H330.222C330.275 593.708 330.328 593.719 330.377 593.739C330.427 593.76 330.472 593.789 330.51 593.827C330.547 593.865 330.577 593.91 330.598 593.959C330.618 594.009 330.629 594.062 330.629 594.115V596.172H336.725V594.115C336.725 594.062 336.735 594.009 336.756 593.959C336.776 593.91 336.806 593.865 336.844 593.827C336.882 593.789 336.926 593.76 336.976 593.739C337.025 593.719 337.078 593.708 337.132 593.708H346.89C346.944 593.708 346.997 593.719 347.046 593.739C347.095 593.76 347.14 593.789 347.178 593.827C347.216 593.865 347.246 593.91 347.266 593.959C347.287 594.009 347.297 594.062 347.297 594.115V596.172H353.401V594.115C353.4 594.062 353.411 594.009 353.431 593.959C353.452 593.91 353.482 593.865 353.52 593.827C353.557 593.789 353.602 593.76 353.652 593.739C353.701 593.719 353.754 593.708 353.807 593.708H363.566C363.619 593.708 363.672 593.719 363.722 593.739C363.771 593.76 363.816 593.789 363.854 593.827C363.892 593.865 363.922 593.91 363.942 593.959C363.962 594.009 363.973 594.062 363.973 594.115V596.172H370.069V594.115C370.069 594.062 370.079 594.009 370.1 593.959C370.12 593.91 370.15 593.865 370.188 593.827C370.226 593.789 370.271 593.76 370.32 593.739C370.37 593.719 370.422 593.708 370.476 593.708H446.916C446.969 593.708 447.022 593.719 447.071 593.739C447.121 593.76 447.166 593.789 447.203 593.827C447.241 593.865 447.271 593.91 447.292 593.959C447.312 594.009 447.323 594.062 447.322 594.115V596.172H453.426V594.115C453.426 594.062 453.436 594.009 453.457 593.959C453.477 593.91 453.507 593.865 453.545 593.827C453.583 593.789 453.628 593.76 453.677 593.739C453.726 593.719 453.779 593.708 453.833 593.708H463.591C463.699 593.709 463.802 593.753 463.878 593.829C463.954 593.905 463.997 594.008 463.998 594.115V596.172H470.094V594.115C470.094 594.062 470.105 594.009 470.125 593.959C470.146 593.91 470.176 593.865 470.213 593.827C470.251 593.789 470.296 593.76 470.346 593.739C470.395 593.719 470.448 593.708 470.501 593.708H480.26C480.313 593.708 480.366 593.719 480.416 593.739C480.465 593.76 480.51 593.789 480.548 593.827C480.585 593.865 480.615 593.91 480.636 593.959C480.656 594.009 480.667 594.062 480.667 594.115V596.172H486.763V594.115C486.763 594.062 486.773 594.009 486.794 593.959C486.814 593.91 486.844 593.865 486.882 593.827C486.92 593.789 486.965 593.76 487.014 593.739C487.063 593.719 487.116 593.708 487.17 593.708H496.928C496.982 593.708 497.035 593.719 497.084 593.739C497.133 593.76 497.178 593.789 497.216 593.827C497.254 593.865 497.284 593.91 497.304 593.959C497.325 594.009 497.335 594.062 497.335 594.115V596.172H503.439V594.115C503.439 594.062 503.449 594.009 503.469 593.959C503.49 593.91 503.52 593.865 503.558 593.827C503.595 593.789 503.64 593.76 503.69 593.739C503.739 593.719 503.792 593.708 503.846 593.708H513.604C513.711 593.71 513.813 593.753 513.888 593.829C513.963 593.906 514.004 594.008 514.004 594.115V596.172H520.107V594.115C520.107 594.062 520.118 594.009 520.138 593.959C520.158 593.91 520.188 593.865 520.226 593.827C520.264 593.789 520.309 593.76 520.358 593.739C520.408 593.719 520.461 593.708 520.514 593.708H530.272C530.326 593.708 530.379 593.719 530.428 593.739C530.478 593.76 530.523 593.789 530.56 593.827C530.598 593.865 530.628 593.91 530.649 593.959C530.669 594.009 530.679 594.062 530.679 594.115V596.172H536.776V594.115C536.776 594.062 536.786 594.009 536.806 593.959C536.827 593.91 536.857 593.865 536.895 593.827C536.932 593.789 536.977 593.76 537.027 593.739C537.076 593.719 537.129 593.708 537.183 593.708H546.941C546.994 593.708 547.047 593.719 547.097 593.739C547.146 593.76 547.191 593.789 547.229 593.827C547.267 593.865 547.297 593.91 547.317 593.959C547.338 594.009 547.348 594.062 547.348 594.115V596.172H575.809C577.091 596.171 578.36 596.423 579.544 596.914C580.728 597.404 581.804 598.123 582.71 599.029C583.616 599.935 584.335 601.011 584.826 602.195C585.316 603.379 585.568 604.648 585.568 605.93V605.93Z" fill="#3F3D56"/>
<path d="M679.917 613.876H147.31V615.329H679.917V613.876Z" fill="#3F3D56"/>
<path d="M559.44 420.183H438.501V417.69H383.662V420.183H262.224C260.055 420.183 257.974 421.045 256.44 422.579C254.906 424.113 254.044 426.194 254.044 428.364V593.967C254.044 596.137 254.906 598.217 256.44 599.752C257.974 601.286 260.055 602.148 262.224 602.148H559.44C561.61 602.148 563.691 601.286 565.225 599.752C566.759 598.217 567.621 596.137 567.621 593.967V428.364C567.621 427.289 567.41 426.226 566.998 425.233C566.587 424.241 565.985 423.339 565.225 422.579C564.465 421.819 563.564 421.217 562.571 420.806C561.579 420.395 560.515 420.183 559.44 420.183V420.183Z" fill="#3F3D56"/>
<path d="M411.07 496.164C421.103 496.164 429.236 488.032 429.236 477.999C429.236 467.967 421.103 459.834 411.07 459.834C401.038 459.834 392.905 467.967 392.905 477.999C392.905 488.032 401.038 496.164 411.07 496.164Z" stroke="#D0CDE1" stroke-width="1.45322" stroke-miterlimit="10"/>
<path d="M405.258 502.704C415.29 502.704 423.423 494.571 423.423 484.539C423.423 474.506 415.29 466.373 405.258 466.373C395.225 466.373 387.092 474.506 387.092 484.539C387.092 494.571 395.225 502.704 405.258 502.704Z" fill="#D0CDE1"/>
<path d="M186.236 640.132H48.9065V641.775H186.236V640.132Z" fill="#3F3D56"/>
<path d="M785.691 640.132H648.362V641.775H785.691V640.132Z" fill="#3F3D56"/>
<path d="M128.92 587.21C114.453 610.829 119.43 640.21 119.43 640.21C119.43 640.21 147.864 631.295 162.332 607.675C176.8 584.056 171.822 554.676 171.822 554.676C171.822 554.676 143.388 563.59 128.92 587.21Z" fill="#3F3D56"/>
<path d="M118.84 640.405L118.017 640.274C117.72 640.227 88.1114 635.321 70.3791 614.105C52.6466 592.889 53.0733 562.879 53.0791 562.579L53.0968 561.746L53.9194 561.877C54.2169 561.924 83.8253 566.829 101.558 588.046C119.29 609.262 118.863 639.271 118.858 639.572L118.84 640.405Z" fill="#6C63FF"/>
<path d="M120.008 641.152L119.213 640.902C118.926 640.812 90.3518 631.634 75.909 608.055C61.4661 584.476 66.2721 554.851 66.3218 554.554L66.4609 553.733L67.2556 553.982C67.543 554.072 96.1172 563.251 110.56 586.83C125.003 610.409 120.197 640.034 120.147 640.331L120.008 641.152ZM67.6331 555.645C66.9754 560.618 64.3534 586.407 77.1479 607.296C89.9431 628.184 114.109 637.565 118.836 639.239C119.494 634.267 122.116 608.477 109.321 587.589C96.5259 566.701 72.3603 557.319 67.6331 555.645H67.6331Z" fill="#3F3D56"/>
<path d="M120.333 563.675C129.162 563.675 136.319 556.518 136.319 547.69C136.319 538.861 129.162 531.704 120.333 531.704C111.505 531.704 104.348 538.861 104.348 547.69C104.348 556.518 111.505 563.675 120.333 563.675Z" fill="#3F3D56"/>
<path d="M320.492 345.638L228.788 253.211H185.495V251.757H229.395L229.608 251.973L321.525 344.616L320.492 345.638Z" fill="#3F3D56"/>
<path d="M535.875 342.731L627.578 250.304H670.872V248.851H626.971L626.759 249.067L534.842 341.71L535.875 342.731Z" fill="#3F3D56"/>
<path d="M136.085 207.644H30.0001V228.626H136.085V207.644Z" fill="#D0CDE1"/>
<path d="M136.085 239.841H30.0001V260.824H136.085V239.841Z" fill="#D0CDE1"/>
<path d="M136.085 272.038H30.0001V293.021H136.085V272.038Z" fill="#D0CDE1"/>
<path opacity="0.15" d="M73.8865 207.644H30.0001V228.626H73.8865V207.644Z" fill="black"/>
<path opacity="0.15" d="M44.2079 239.841H30V260.824H44.2079V239.841Z" fill="black"/>
<path opacity="0.15" d="M100.724 272.038H30.0001V293.021H100.724V272.038Z" fill="black"/>
<path d="M830 212.358H723.752V221.825H830V212.358Z" fill="#D0CDE1"/>
<path d="M704.99 211.132H683.951V232.171H704.99V211.132Z" fill="#6C63FF"/>
<path d="M704.99 242.691H683.951V263.73H704.99V242.691Z" fill="#6C63FF"/>
<path d="M704.99 274.25H683.951V295.289H704.99V274.25Z" fill="#6C63FF"/>
<path d="M710.803 227.812H688.311V205.319H710.803V227.812ZM689.764 226.359H709.35V206.772H689.764V226.359Z" fill="#3F3D56"/>
<path d="M830 243.917H723.752V253.384H830V243.917Z" fill="#D0CDE1"/>
<path d="M710.803 259.371H688.311V236.878H710.803V259.371ZM689.764 257.917H709.35V238.331H689.764V257.917Z" fill="#3F3D56"/>
<path d="M830 275.475H723.752V284.943H830V275.475Z" fill="#D0CDE1"/>
<path d="M710.803 290.929H688.311V268.437H710.803V290.929ZM689.764 289.476H709.35V269.89H689.764V289.476Z" fill="#3F3D56"/>
<path d="M167.33 229.959C173.75 229.959 178.955 224.754 178.955 218.333C178.955 211.912 173.75 206.707 167.33 206.707C160.909 206.707 155.704 211.912 155.704 218.333C155.704 224.754 160.909 229.959 167.33 229.959Z" fill="#6C63FF"/>
<path d="M167.33 264.836C173.75 264.836 178.955 259.631 178.955 253.211C178.955 246.79 173.75 241.585 167.33 241.585C160.909 241.585 155.704 246.79 155.704 253.211C155.704 259.631 160.909 264.836 167.33 264.836Z" fill="#6C63FF"/>
<path d="M167.33 296.081C173.75 296.081 178.955 290.876 178.955 284.455C178.955 278.034 173.75 272.829 167.33 272.829C160.909 272.829 155.704 278.034 155.704 284.455C155.704 290.876 160.909 296.081 167.33 296.081Z" fill="#6C63FF"/>
<path d="M161.517 227.779C159.074 227.779 156.686 227.055 154.654 225.697C152.623 224.34 151.04 222.411 150.105 220.154C149.17 217.897 148.925 215.413 149.402 213.017C149.878 210.621 151.055 208.42 152.782 206.692C154.51 204.965 156.711 203.788 159.107 203.312C161.503 202.835 163.987 203.08 166.244 204.015C168.501 204.95 170.43 206.533 171.787 208.564C173.145 210.595 173.869 212.984 173.869 215.427C173.866 218.702 172.563 221.841 170.247 224.157C167.931 226.473 164.792 227.776 161.517 227.779V227.779ZM161.517 204.528C159.361 204.528 157.254 205.167 155.462 206.364C153.669 207.562 152.272 209.264 151.447 211.256C150.622 213.247 150.406 215.439 150.827 217.553C151.248 219.667 152.286 221.609 153.81 223.134C155.334 224.658 157.276 225.696 159.39 226.117C161.505 226.537 163.696 226.321 165.688 225.496C167.679 224.671 169.382 223.274 170.579 221.482C171.777 219.69 172.416 217.582 172.416 215.427C172.413 212.537 171.263 209.767 169.22 207.723C167.177 205.68 164.406 204.531 161.517 204.528V204.528Z" fill="#3F3D56"/>
<path d="M161.517 262.657C159.074 262.657 156.686 261.932 154.654 260.575C152.623 259.218 151.04 257.288 150.105 255.031C149.17 252.774 148.925 250.29 149.402 247.894C149.878 245.498 151.055 243.297 152.782 241.57C154.51 239.842 156.711 238.666 159.107 238.189C161.503 237.713 163.987 237.957 166.244 238.892C168.501 239.827 170.43 241.41 171.787 243.442C173.145 245.473 173.869 247.861 173.869 250.304C173.866 253.579 172.563 256.719 170.247 259.035C167.931 261.35 164.792 262.653 161.517 262.657V262.657ZM161.517 239.405C159.361 239.405 157.254 240.044 155.462 241.242C153.669 242.439 152.272 244.142 151.447 246.133C150.622 248.125 150.406 250.316 150.827 252.431C151.248 254.545 152.286 256.487 153.81 258.011C155.334 259.535 157.276 260.573 159.39 260.994C161.505 261.415 163.696 261.199 165.688 260.374C167.679 259.549 169.382 258.152 170.579 256.359C171.777 254.567 172.416 252.46 172.416 250.304C172.413 247.415 171.263 244.644 169.22 242.601C167.177 240.558 164.406 239.408 161.517 239.405Z" fill="#3F3D56"/>
<path d="M161.517 293.901C159.074 293.901 156.686 293.176 154.654 291.819C152.623 290.462 151.04 288.533 150.105 286.276C149.17 284.018 148.925 281.535 149.402 279.139C149.878 276.742 151.055 274.542 152.782 272.814C154.51 271.086 156.711 269.91 159.107 269.433C161.503 268.957 163.987 269.201 166.244 270.136C168.501 271.071 170.43 272.654 171.787 274.686C173.145 276.717 173.869 279.105 173.869 281.548C173.866 284.823 172.563 287.963 170.247 290.279C167.931 292.595 164.792 293.897 161.517 293.901V293.901ZM161.517 270.649C159.361 270.649 157.254 271.288 155.462 272.486C153.669 273.684 152.272 275.386 151.447 277.378C150.622 279.369 150.406 281.561 150.827 283.675C151.248 285.789 152.286 287.731 153.81 289.255C155.334 290.78 157.276 291.818 159.39 292.238C161.505 292.659 163.696 292.443 165.688 291.618C167.679 290.793 169.382 289.396 170.579 287.604C171.777 285.811 172.416 283.704 172.416 281.548C172.413 278.659 171.263 275.888 169.22 273.845C167.177 271.802 164.406 270.653 161.517 270.649V270.649Z" fill="#3F3D56"/>
<path d="M748.619 591.085H747.166V580.186C747.167 579.608 747.397 579.054 747.805 578.645C748.214 578.237 748.768 578.007 749.346 578.006H752.979C753.172 578.006 753.357 577.93 753.493 577.793C753.629 577.657 753.706 577.472 753.706 577.28V570.014C753.706 569.821 753.629 569.636 753.493 569.5C753.357 569.364 753.172 569.287 752.979 569.287H749.346C748.768 569.286 748.214 569.056 747.805 568.648C747.397 568.239 747.167 567.685 747.166 567.107V563.474C747.166 563.281 747.09 563.097 746.953 562.96C746.817 562.824 746.632 562.748 746.44 562.747H739.9C739.322 562.747 738.768 562.517 738.359 562.108C737.951 561.7 737.721 561.146 737.72 560.568V559.841C737.72 559.648 737.644 559.464 737.507 559.327C737.371 559.191 737.186 559.114 736.994 559.114H710.836C710.643 559.114 710.458 559.191 710.322 559.327C710.186 559.464 710.109 559.648 710.109 559.841V560.568C710.108 561.146 709.879 561.7 709.47 562.108C709.061 562.517 708.507 562.747 707.929 562.747H701.39C701.197 562.748 701.012 562.824 700.876 562.96C700.74 563.097 700.663 563.281 700.663 563.474V567.107C700.662 567.685 700.433 568.239 700.024 568.648C699.615 569.056 699.061 569.286 698.483 569.287H694.85C694.658 569.287 694.473 569.364 694.337 569.5C694.2 569.636 694.124 569.821 694.124 570.014V577.28C694.124 577.472 694.2 577.657 694.337 577.793C694.473 577.93 694.658 578.006 694.85 578.006H699.21C699.788 578.007 700.342 578.237 700.751 578.645C701.159 579.054 701.389 579.608 701.39 580.186V591.085H699.936V580.186C699.936 579.993 699.86 579.809 699.724 579.672C699.587 579.536 699.403 579.46 699.21 579.459H694.85C694.272 579.459 693.718 579.229 693.31 578.82C692.901 578.412 692.671 577.858 692.67 577.28V570.014C692.671 569.436 692.901 568.882 693.31 568.473C693.718 568.064 694.272 567.834 694.85 567.834H698.483C698.676 567.834 698.861 567.757 698.997 567.621C699.133 567.485 699.21 567.3 699.21 567.107V563.474C699.21 562.896 699.44 562.342 699.849 561.933C700.258 561.525 700.812 561.295 701.39 561.294H707.929C708.122 561.294 708.307 561.217 708.443 561.081C708.579 560.945 708.656 560.76 708.656 560.568V559.841C708.656 559.263 708.886 558.709 709.295 558.3C709.704 557.892 710.258 557.662 710.836 557.661H736.994C737.572 557.662 738.126 557.892 738.534 558.3C738.943 558.709 739.173 559.263 739.174 559.841V560.568C739.174 560.76 739.25 560.945 739.386 561.081C739.523 561.217 739.707 561.294 739.9 561.294H746.44C747.018 561.295 747.572 561.525 747.98 561.933C748.389 562.342 748.619 562.896 748.619 563.474V567.107C748.62 567.3 748.696 567.485 748.832 567.621C748.969 567.757 749.153 567.834 749.346 567.834H752.979C753.557 567.834 754.111 568.064 754.52 568.473C754.929 568.882 755.158 569.436 755.159 570.014V577.28C755.158 577.858 754.929 578.412 754.52 578.82C754.111 579.229 753.557 579.459 752.979 579.459H749.346C749.153 579.46 748.969 579.536 748.832 579.672C748.696 579.809 748.62 579.993 748.619 580.186V591.085Z" fill="#3F3D56"/>
<path d="M746.44 641.948H702.116C701.538 641.948 700.984 641.718 700.576 641.309C700.167 640.9 699.937 640.346 699.936 639.768V608.524H701.39V639.768C701.39 639.961 701.466 640.146 701.603 640.282C701.739 640.418 701.924 640.495 702.116 640.495H746.44C746.632 640.495 746.817 640.418 746.953 640.282C747.09 640.146 747.166 639.961 747.166 639.768V608.524H748.619V639.768C748.619 640.346 748.389 640.9 747.98 641.309C747.572 641.718 747.018 641.948 746.44 641.948V641.948Z" fill="#3F3D56"/>
<path d="M755.886 596.172H701.39C700.587 596.172 699.936 596.822 699.936 597.625V612.157C699.936 612.96 700.587 613.61 701.39 613.61H755.886C756.688 613.61 757.339 612.96 757.339 612.157V597.625C757.339 596.822 756.688 596.172 755.886 596.172Z" fill="#6C63FF"/>
<path d="M751.163 609.251H696.667C696.089 609.25 695.535 609.02 695.126 608.611C694.717 608.203 694.488 607.649 694.487 607.071V592.538C694.488 591.961 694.717 591.406 695.126 590.998C695.535 590.589 696.089 590.359 696.667 590.359H751.163C751.741 590.359 752.295 590.589 752.703 590.998C753.112 591.406 753.342 591.961 753.342 592.538V607.071C753.342 607.649 753.112 608.203 752.703 608.611C752.295 609.02 751.741 609.25 751.163 609.251ZM696.667 591.812C696.474 591.812 696.289 591.889 696.153 592.025C696.017 592.161 695.94 592.346 695.94 592.538V607.071C695.94 607.263 696.017 607.448 696.153 607.584C696.289 607.721 696.474 607.797 696.667 607.797H751.163C751.355 607.797 751.54 607.721 751.676 607.584C751.813 607.448 751.889 607.263 751.889 607.071V592.538C751.889 592.346 751.813 592.161 751.676 592.025C751.54 591.889 751.355 591.812 751.163 591.812H696.667Z" fill="#3F3D56"/>
<path d="M722.461 552.575C720.53 539.563 720.02 526.379 720.939 513.257L722.461 491.539C714.075 508.226 715.97 530.19 722.461 552.575V552.575Z" fill="#D0CDE1"/>
<path d="M729.001 556.208C728.071 548.443 727.826 540.612 728.269 532.804L729.001 519.877C724.966 529.81 725.878 542.883 729.001 556.208Z" fill="#D0CDE1"/>
</svg>
